<?xml version="1.0" encoding="utf-8"?>
<!-- Generator: Adobe Illustrator 24.1.2, SVG Export Plug-In . SVG Version: 6.00 Build 0)  -->
<svg version="1.2" baseProfile="tiny" id="Layer_4" xmlns="http://www.w3.org/2000/svg" xmlns:xlink="http://www.w3.org/1999/xlink"
	 x="0px" y="0px" viewBox="0 0 1704 638.6" overflow="visible" xml:space="preserve">
<path fill="#FFEA00" d="M1220.7,194.5h62.9c16.3,0,32.7,0.1,49,0c11.1-0.1,20.1,5.2,29,10.8c4.9,3.1,9.6,6.7,14.2,10.2
	c1.6,1.3,2.6,1.4,4.3,0.1c6.5-4.9,13.3-9.4,19.8-14.3c6.7-5.1,14.5-5.5,22.2-5.8c22.4-1,44.7-1.6,67.1-2c9.7-0.2,19.5,0.2,29.2,0.5
	c4,0.1,9.9,3.2,11.1,9c0.7,3.6,1.4,7.3,2.2,11.2c3.6-2.8,7.2-5.4,10.7-8.2c11.7-9.4,26.8-13.6,41.7-11.7c7.2,0.8,11.6-2.9,16.4-6
	c15.8-10.4,31.4-21.1,47-31.8c5.7-3.9,13-4,18.2,0.6c12.7,10.8,24.5,22.7,35.1,35.5c0.7,1.2,0.9,2.6,0.5,3.9
	c-6.9,19.3-13.8,38.7-21,57.9c-5.1,13.7-10.5,27.2-16,40.8c-1.3,3.2,0.6,4.1,2.6,4.8c8,3.1,14.3,8.7,20.8,14
	c13.5,11.1,18,25.4,15.3,42.4c-4.8,29.7-17.9,55.9-34.7,80.4c-4.3,6.3-10.6,11.4-16.6,16.4c-5.6,4.8-12.8,6.2-20,7
	c-12.9,1.3-25.8,2.9-38.8,4.1c-5.4,0.5-11.1-0.2-15.8,3.3c-3.7,2.5-7.2,5.3-10.6,8.3c-6.5,6.2-12.6,13-19.2,19.1
	c-2.1,1.8-4.7,2.9-7.5,3c-13,0.1-26.1-0.1-39.1-0.7c-2.2-0.1-4.4-2-6.5-3.2c-1-0.6-1.6-1.8-2.6-2.5c-6.8-5.1-8.9-12.1-8.6-20.2
	c0-0.7-0.1-1.4-0.1-2.5c-3.2,0.3-6.2,0.6-9.1,0.8c-11.3,0.5-22.6,1.2-33.9,1.4c-9.9,0.2-19.8,0.3-29.6-0.1
	c-12.8-0.5-25.4-1.9-37.1-7.7c-10.3-5.1-16-13.9-19.7-24.3c-0.8-2.4-1.5-4.8-1.2-5.8c-6.7,6-13.5,11.9-20.2,18
	c-6.5,5.9-13.8,10.5-22.2,12.7c-3.9,0.9-7.9,1.3-11.9,1.3c-24.4,0.4-48.8,0.6-73.2,0.8c-6.4,0-12.9-0.6-20.2-1
	c-0.2,5-0.7,10.1-0.6,15.2c0.1,3.5-0.7,6.1-3.7,8.3c-16,12-26.2,28.3-33.2,46.8c-1.2,3-2.3,4.4-6.1,4.2c-7.5-0.4-15.1,0.4-22.6,0.7
	c-5.7,0.2-6.3-0.5-8.5-5.9c-2.5-6.3-5.1-12.6-8.2-18.6c-5.2-10-14.6-15.7-23.6-21.7c-3.3-2.2-7.1-3.8-10.5-5.8s-5.6-4.5-4.9-8.9
	c0.3-2.4,0.1-4.8,0.1-7.9c-7.2,0.6-14.1,1.4-21.1,1.7c-8.6,0.3-17.3,0.8-25.8,0.1c-3.8-0.3-7.6-2.9-11-5.2c-3-2-5.5-2.9-9.2-1.7
	c-7.4,2.5-15,5.4-22.7,6.2c-10.3,1-20.9,0.6-31.3,0.2s-19-5.1-26.3-12.5c-6-6-7.9-13.8-9.9-21.5c-0.3-1-0.5-2.1-0.8-3.7
	c-5.2,4.7-9.9,9.1-14.7,13.4c-10.2,8.9-20.4,17.7-30.6,26.6c-6.3,5.5-12.4,11.4-19.1,16.4c-16.1,12.1-33.6,21.5-54.2,23
	c-16.3,1.3-32.6,3.8-49.1,3.1c-23.5-1-46-5.5-66-18.4c-8.1-5.2-15.3-12-22.7-18.3c-6.6-5.7-13.7-8.3-22.8-8.3
	c-75.4,0.1-150.8-0.4-226.1-0.6c-16.2-0.1-32.4,0-48.7,0.2c-13,0.1-24-4.3-33-13.7c-2-2.1-3.9-4.3-5.9-6.5l-1.5,0.4
	c-0.3,2.2-0.4,4.5-0.5,6.8c0.4,7.2,0.6,14.3,1.4,21.5c2.4,20.7,3.5,41.7,11,61.6c8.1,21.3,22.1,36.7,43.9,44.4
	c4.7,1.8,9.9,1.8,14.6,0c8.6-3.3,16.6-7.9,23.6-13.9c1.6-1.3,4-1.9,6.2-2.3c1.8-0.4,3.7,0.2,5.5-0.1c7.1-1.2,12.2,1.4,16.7,6.9
	c3.2,4,2.9,8.6,3.3,13c0.4,5.8,0.5,11.7,0.1,17.5c-0.1,1.5-0.8,3-1.9,4.1c-6,5.7-11.6,11.9-18.3,16.7c-7.2,5.2-15.9,7.1-24.8,8.4
	c-17.8,2.5-35.7,2.2-53.5,1.6c-30.7-1-61.4-1.8-92.1-3.5c-12.4-0.7-23.6-5.4-33.8-13.5c-15.1-11.9-20.3-28.5-24.9-45.6
	c-5.6-20.9-6-42.3-4.6-63.7c0.4-5.3,0.9-10.7,1.4-16.2c-0.4-0.2-0.8-0.3-1.2-0.3c-11.2-0.3-22.4-0.6-33.5-0.8
	c-23.6-0.3-47.2-0.5-70.9-0.7c-7.1,0-14.3,0.7-21.4,0.6c-10.6,0-21.2,0.4-31.7-0.9c-12.2-1.5-22.6-7.1-29.2-18
	c-1-1.8-1.5-3.8-1.5-5.8c0.3-8.2,0.8-16.4,1.5-24.6c0.3-3,8.5-9.1,11.6-9.1c3.7,0.2,7.3,0.1,11-0.1c3.9-0.4,6.4,1.3,8.9,3.8
	c2.8,2.8,5.4,6,8.6,8.2c4.6,3,8.8,0.5,8.8-4.8c0.1-47.3,0.1-94.6,0.3-141.9c0.2-30.6,0.4-61.2,1.3-91.8c0.4-14.9-2-29.2-4.9-43.6
	c-2.2-10.9-4.4-21.8-9.9-31.6c-5.9-10.4-13.6-19.1-25-23.5c-4.2-1.6-9-1.8-13.6-2.6c-5.1-1-9.7-2.9-12-7.8c-1.1-2.3-1.3-4.8-0.6-7.2
	C5.7,78.3,13,63.8,21.9,50.3c2.3-3.5,5.5-5.1,10.2-5.5c18.4-1.6,33.3,5.8,47.1,16.7c2.8,2.3,6.4,3.5,10,3.3
	c26.2,0.1,52.4,0.6,78.7,0.6c28.2,0,56.3-0.5,84.5-0.7c15-0.1,30.1,0.6,44.5,4.9c7.9,2.3,15.3,6,22,10.8c8.1,5.9,15.6,13.1,20,22.4
	c2.5,5.2,4.9,10.9,5.2,16.5c0.9,14.3,0.9,28.7,0.1,43c-1,14.2-7.7,26.3-17.6,36.4c-7.3,7.3-15,14.2-22.6,21.4l12.9,27.3
	c7.1-6.6,14.1-13.4,21.5-19.8c9.8-8.6,20-16.8,29.8-25.2c6.1-5.2,13.6-5.9,21-6c24.8-0.6,49.5-0.8,74.3-0.9
	c49.5-0.3,99-0.4,148.6-0.7c9.1,0,18.2-0.4,27.3-0.8c1.1-0.1,2.2-0.6,3-1.4c19.8-21.9,39.4-43.9,59.3-65.6
	c10.5-11.4,21.1-22.7,32.7-33c8-7,17-13.4,27.7-16.1c3.4-0.9,6.9-1,10.4-1.6c11.7-2.2,23.5-3.5,35.4-3c7.2,0.3,14.4,1.2,21.5,0.6
	c17.1-1.4,34.3-3.3,49.8-11.5c1.7-0.9,3.1-2.2,4.1-3.8c6.1-11.2,14.3-21.2,24-29.4c6.4-5.5,13.9-9.3,22.9-8.3
	c3.5,0.4,7.8-0.8,10.3,0.9c2.3,1.6,2.7,6,4,9.1c2.3,5.6,4.5,11.3,7.2,16.8c4.1,8.5-1.6,13.9-8.6,17c-5.8,2.6-11.2,6.1-16.9,9.1
	c-6.5,3.4-8.7,9-9.5,15.9c-1.8,15.4-2,30.9-0.6,46.3c1.4,15.8,3.9,31.5,9.2,46.5c0.9,2.6,2.2,4.4,4.8,4.9c4.7,1,9.5,2.4,14.2,2.5
	c26.6,0.2,53.1,0,79.7,0.1c13.4,0,26.8,0.3,40.2,0.5c3.2,0,5.1-0.9,5.1-4.8c0-5.2,0.8-10.4,1-15.6c0-1.8-0.5-3.6-1.5-5.1
	c-8.9-15.2-13.4-31.7-12.2-49.3c1.1-15.8,6.5-30.4,15.3-43.7c11.3-17.1,26.9-29.3,45.4-37.2c9.5-4,17.5-9.6,25.6-15.6
	c9.8-7.3,19.9-14,31.4-18.4c5-1.9,8.9,0.6,7.9,5.8c-1.6,8.4,0.4,16.4,2.5,24.3c3.9,15,11.6,27.5,24,37.2
	c15.4,12,22.8,28.4,24.8,47.3c1.8,17.8-1.1,34.7-10.7,50.3c-1.8,3-2.1,7.2-2.3,10.8C1220.4,182.5,1220.7,188.6,1220.7,194.5z
	 M1129.7,70.9c1.6-0.9,3.6-1.3,4.3-2.5c3.9-6.4,7.5-13,11.5-20C1139.4,49.1,1130.8,61.9,1129.7,70.9L1129.7,70.9z M696.5,183.6
	l-6.8,9.3l25.3-3.1C708.8,187.7,701.8,189.3,696.5,183.6z M1146.2,498.8l-1.5,0.5c1.8,6,0.1,13.3,6.8,17.6c4-2.9,4.6-6.8,1.8-11.4
	c-0.4,1.6-0.8,3-1.2,4.4l-1,0.3C1149.6,506.4,1147.9,502.6,1146.2,498.8L1146.2,498.8z M1160.5,27.4c0.2,0.2,0.3,0.4,0.5,0.6
	l9.9-9.7l-0.7-0.7L1160.5,27.4z"/>
<path fill="#871818" stroke="#871818" stroke-width="2" stroke-miterlimit="10" d="M71.4,468.5c0.8-1.1,1.2-2,1.8-2.3
	c8.4-5.2,13-13.1,14.7-22.5c1.6-8.8,2.5-17.8,2.8-26.7c0.7-22.4,1-44.8,1.1-67.2c0.1-28.8-0.1-57.5-0.3-86.3
	c-0.1-24.2,0-48.5-0.6-72.7c-0.3-10.9,0.8-22-2.9-32.6c-4.8-13.4-10.2-26.5-18.9-38c-4.8-6.3-9.6-12.6-15.2-18.1
	C46.5,94.9,37,91,26.9,89c-8.1-1.7-9.4-3.9-5.5-11.5c1.7-3.2,3.6-6.3,5.7-9.2c0.7-0.9,2.3-1.2,3.8-2v8.3c1.9-0.3,3.8-0.5,5.6-0.6
	c11,0.1,20.7,4.1,30.1,9.3c10.2,5.6,16.8,14.5,23.7,23.5c9.2,12,15.2,25.6,20.4,39.6c0.9,2.5,0.9,5.3,2,7.6c0.8,1.7,2.7,3.7,4.3,3.9
	c6.7,0.9,11.7-1.7,16.4-7c7.4-8.5,14.8-17,24.8-22.9c6-3.5,12.8-4.7,19.4-4.9c16.9-0.5,33.9-0.6,50.9,0c9.6,0.4,19.6,0.9,28,7
	c7.1,5.2,10.7,12,11.5,20.8c0.7,7.2,1.2,14.3-1.6,21c-4.4,10.8-11.5,20.4-20.6,27.6c-12.4,9.8-25.5,18.6-37.9,28.4
	c-8.8,7-17,14.8-25.4,22.2c-1.9,1.7-3.7,3.5-5.6,5.3l-1.5-0.9c0.5-4.6,1.3-9.3,1.5-13.9c0.2-8.4,7.6-10.6,12.6-14.6
	c11.7-9.5,24.4-17.7,36-27.2c9.5-7.9,17.2-17.8,19.7-30.2c2.1-10.3-3-24.6-16.6-28.6c-10.6-3.1-20-3.8-29.1,2
	c-0.6,0.3-1.2,0.6-1.9,0.8c0.2-1.3,0.3-0.3,0.4-1.3c-4.6-3.4-9.7-3.3-14.6-1.7c-18,5.9-34.6,14.5-48,28.2
	c-8.1,8.3-13.4,18.3-17,29.4c-5.4,16.8-3.9,34-4.1,51.2c-0.1,5.2,0.6,10.4,0.6,15.6c0,42.3,0.1,84.6,0,126.9
	c-0.1,13.3-0.2,26.7-1.6,40c-1.2,11.5-4.3,23-13.6,31.1c-2.9,2.6-7,4.1-10.8,5.3C83.1,469.4,77.1,469.8,71.4,468.5z"/>
<path fill="#871818" stroke="#871818" stroke-width="2" stroke-miterlimit="10" d="M788.2,89.2c-12.5,5.2-22.2,12.6-31.3,20.8
	c-7.4,6.6-14.5,13.6-21.1,21c-8.1,9.2-15.4,19.2-23.3,28.6c-5.3,6.3-8.2,13.7-11.1,21.2c-1.4,3.8-2.3,7.9-2.6,12
	c-5,61.5-1.2,123.2-2.1,184.7c-0.2,10.4,2,20.8,3.3,31.2c0.7,5.8,1.8,11.6,3.2,17.3c1.4,5.3,3.9,10.4,5.4,15.7
	c2.1,7.3,5.8,14,10.7,19.7c7,8.3,16.1,13.2,26.5,16.7c12.5,4.2,25.2,4.2,38,4.2c9.3,0,18.6,0.3,27.8-0.1c6.4-0.2,12.8-1,19-2.4
	c4.4-1,8.5-3.5,13.6-5.8c-0.5,0.9-1.1,1.8-1.8,2.6c-4.1,3.7-8.4,7.3-12.5,11.1c-6.2,5.8-14.1,7.4-21.8,7.8
	c-17.3,1-34.8,1.6-52.2,1.3c-16.5-0.3-32.6-3.1-46.5-13c-10.9-7.7-19.1-18.5-23.8-31c-4.4-11.3-7.5-23-9.2-35
	c-1.4-10.2-2.2-20.5-2.4-30.9c-0.3-33.8,0-67.6-0.1-101.3c-0.1-18.2-0.8-36.5-0.5-54.7c0.2-13.2,1.2-26.5,3-39.6
	c1.9-12.9,8.7-23.9,16.7-34.2c14.7-19.4,31.6-37.1,50.3-52.8c6.1-4.8,12.6-9,19.4-12.7c3.5-1.9,7.7-2.5,11.7-3.3
	c2.8-0.6,5.7-0.8,8.6-0.8C784.8,87.5,786.2,88.4,788.2,89.2z"/>
<path fill="#871818" stroke="#871818" stroke-width="2" stroke-miterlimit="10" d="M201.4,274.6c5.2-6.5,11.8-11.7,19.3-15.3
	c4.2-2.1,11.4,1.4,13.4,6.1c2.8,6.4,5.8,12.8,7.7,19.5s2.5,13.9,3.9,20.9c1.8,9.3,2.1,18.7,2.3,28.2c0.2,11.6,1.4,23.2,2.1,34.8
	c0.5,9.1,1.3,18.1,1.4,27.2c0.4,21.8,0.7,43.6,0.7,65.4c0,26.2-1,52.4-0.5,78.5c0.3,17.6,5.7,34.7,15.5,49.3
	c8.6,13.1,21.5,18,35.7,21.1c10.5,2.2,21.3,3.3,32.1,3c15.2-0.3,30.3,0,45.5-0.1c9.2-0.1,18.5-0.1,27.7-0.8s18.2-2.3,26.4-6.8
	c2.4-1.3,4.9-2.4,7.4-3.6c0.8,3-0.3,5.1-2.4,7.2c-9.1,9.2-20.4,13.8-32.9,15.2c-10,1.1-20.1,1.3-30.1,1.6c-12.7,0.4-25.4,0.8-38,0.8
	c-14.6,0-29.3,0.4-43.8-1.2c-12.1-1.3-24.6-3.3-34.8-10.7c-13.3-9.7-21.5-23.3-26.2-38.9c-3.4-11.3-4.5-22.8-4.5-34.6
	c0-24.1,0-48.3,0-72.4c0-16.1,0.5-32.2,0.3-48.3c-0.2-15.5-1-30.9-1.7-46.3c-0.6-14.7-1.2-29.4-2.3-44c-0.5-6.8-2.1-13.6-2.9-20.4
	c-1.2-11.2-5.1-21.5-9.7-31.6c-1.6-3.7-3.1-4.4-6.9-3.5c-1.4,0.3-2.8,0.5-4.2,0.6L201.4,274.6z"/>
<path fill="#871818" stroke="#871818" stroke-width="2" stroke-miterlimit="10" d="M572.5,414.7c5.9-5.9,7.5-13.7,8.2-21.4
	c1.2-14,1.7-28.2,2.3-42.2c0.6-13.9,1.4-27.7,1.2-41.6c-0.1-12.5-1-25-2-37.5c-0.5-5.8-3.7-10.2-8.5-13.7c-13.5-10-28-8.9-41.1,2.3
	c-10,8.5-14.2,19.5-15.9,31.7c-1.1,8.4-1.6,16.9-1.5,25.3c-0.2,26.1,0,52.2-0.1,78.3c-0.1,14.7-6.5,26.9-15.7,37.9
	c-3.6,4.3-8.2,5.1-14,4c0.8-1.6,1.5-3.3,2-5c1.4-7,3.4-14,3.8-21c0.8-12.8,0.8-25.6,0.9-38.3c0.1-16.3,0-32.7-0.2-49
	c-0.2-23.2-0.2-46.3-0.6-69.5c-0.1-4.8-0.9-9.6-2.5-14.2c-1.6-4.8-6.5-6-10.9-6.8c-3-0.5-4-2.1-3.6-4.8c0.7-4.8,1.5-9.6,2.6-14.3
	c0.2-0.9,1.9-0.4,3.7-1.5v7.4c1.5,0,2.7,0.3,3.7,0c6.4-2.1,12.6-1.4,18.9,0.6c5.1,1.6,9.9,8.4,10.5,14.8c0.4,4.6,0.9,9.1,1.5,13.6
	c0.1,0.9,0.9,2.5,1.4,2.5c1.1,0,2.2-0.5,2.9-1.4c6.2-9.7,16-11.6,26.4-12.3c7.5-0.5,14.9-2.1,22.3-2c11,0.3,21.7,2.3,29.9,10.7
	c5.1,5.1,7.9,12,8,19.2c0.3,11.6,1.2,23.2,1.3,34.9c0.1,11.6-0.4,23.3-0.7,35c-0.2,10.7,0,21.4-0.9,32.1s-1.9,21.7-4.4,32.1
	c-2.5,10.7-9.3,14.9-20.2,15c-2.9,0-5.7,0.3-8.6,0.5C572.5,415.6,572.5,415.2,572.5,414.7z"/>
<path fill="#871818" stroke="#871818" stroke-width="2" stroke-miterlimit="10" d="M1023.3,446.8c-11.6,6.3-24,8.8-37.1,8.6
	c-4.6-0.1-9.3-0.2-13.9,0c-6.4,0.2-11.9-1.8-17.1-5.3c-12.6-8.4-18.2-20.8-18.7-35.3c-0.7-19.3-0.7-38.7-0.8-58.1
	c-0.1-19.7-0.5-39.5,0.3-59.2c0.3-7.9-0.5-14.1-7-19c-0.6-0.4-0.8-1.3-1.4-1.6c-6.8-4.3-5.1-10.8-3.5-16.6
	c3.5-12.5,7.7-24.8,11.8-37.1c2.5-7.5,8.4-11.6,15.8-13.4c2.2-0.5,4.5-0.9,7.4-1.4c-1.7,3.9-3.4,7.3-4.8,10.8
	c-3.2,8.2-6.4,16.4-9.5,24.6c-1,2.3-1.7,4.6-2.1,7.1c-0.2,1.4,0.8,4.3,1.4,4.3c2.4,0.1,5.2,0,7.2-1.1c2.9-1.7,3.4-4.9,3.1-8.3
	c-0.5-5.2,2.3-8.9,6.8-10.9c2.3-1,5.2-0.7,7.8-0.9c6.8-0.5,13.7-1,20.5-1.5l0.3,1c-1.3,1.2-2.6,2.6-4.1,3.7
	c-13.2,10.5-22.8,23.4-25.7,40.4c-1.3,7.6-2,15.2-2.2,22.9c-0.3,17.1-0.2,34.1-0.1,51.2c0.1,9.8,0.5,19.7,0.7,29.5
	c0.1,7.2-0.4,14.5,0.1,21.7c0.7,9.7,2,19.4,8.6,27.5c5.5,6.8,12.6,10.9,21,11.6c10.2,0.9,20.4,0.1,30.2-2.5
	c6.7-1.8,11-6.2,14.9-11.4c2.2-2.8,3.8-6,5.7-9c2.2,5.8,4.4,11.4,6.7,17.1c1.2,3,3,4.8,6.8,4.6c6.6-0.3,13.2,0,19.9-0.1
	c5-0.1,10-0.3,15-0.8c1.4-0.2,0.7-1.7,2.6-2.9c0.1,1.1,1.9,3.2,1.2,4.5c-1.6,2.9-2.5,6.2-5.1,7.8c-6.2,3.8-13.4,5.8-20.8,5.7
	c-11-0.1-22-0.1-32.9-0.3c-1.6-0.1-3.2-0.8-4.4-1.9C1026.4,450.7,1024.8,448.8,1023.3,446.8z"/>
<path fill="#871818" stroke="#871818" stroke-width="0.75" stroke-miterlimit="10" d="M394.3,216.5c-7.2,7.1-14.6,13.8-21.3,21.1
	c-8.2,8.9-16.1,18.3-19.2,30.3c-1.7,6.5-3.1,13.2-3.2,19.9c-0.3,35.7-0.3,71.5,0,107.2c0.1,11.9,3.1,23.4,10.2,33.1
	s16.8,16.7,29.5,17.6c3.2,0.2,6.4,0,9.6,0c10,0,20.1-0.2,30.1,0c9,0.3,17.8-7.2,24.2-13.6l0.1-0.1l0,0c1.4-1.2,3.4,0.2,2.8,1.9
	c-1.1,3.1-3,9.6-6.1,11.4c-0.9,0.4-0.6,1.1-1.3,1.8c-5.8,8.2-15.7,11-24.7,11.5c-17.6,1-35.4,2-52.9,0.6
	c-19.3-1.5-32-14.1-39.2-31.5c-3-7.2-4.1-15.5-4.7-23.4c-0.9-11.8-0.7-23.6-0.7-35.4c0-10.6,0.5-21.2,0.5-31.8
	c0-10.1-0.5-20.2-0.4-30.3c0.1-11.5,0.1-23.1,3.1-34.4c3.6-13.3,11.9-23.6,20.9-33.4c4.7-5.1,9.8-9.9,14.6-14.8
	C374.2,216.3,384,215.4,394.3,216.5z"/>
<path fill="#871818" stroke="#871818" stroke-width="2" stroke-miterlimit="10" d="M1496.3,440.6c-4.7,4.5-9.1,9.4-14.3,13.3
	c-2.2,1.7-6,1.4-9.2,1.5c-13.5,0.3-27,0.3-40.5,0.7c-15.3,0.4-27.6-5.7-37.6-16.9c-8.7-9.7-13.5-22.3-13.3-35.4
	c-0.1-36.8-0.3-73.6,0.2-110.4c0.2-11.8,0.5-24.3,6-35c4.4-8.5,10.7-16.2,17.1-23.5c6.6-7.5,14.2-14.1,21.6-20.8
	c1.8-1.4,3.9-2.1,6.2-2.2c5-0.3,10.1-0.1,15.6-0.1c-6,5.6-11.8,10.6-17.1,16c-11.9,11.9-22.6,24.6-26.2,41.7c-1.1,5.9-1.7,12-1.7,18
	c-0.2,13.3-0.2,26.6,0,39.8c0,5.8,0.7,11.6,0.7,17.4c-0.1,14.6-0.8,29.2-0.6,43.8c0.1,10.5,2.1,20.9,7,30.4
	c5.8,11.1,14.7,18.4,26.8,21.6c3.4,0.9,7.1,1,10.7,1.5c0.1,0,0.2,0,0.4,0C1463.8,441.3,1479.9,443.8,1496.3,440.6z"/>
<path fill="#871818" stroke="#871818" stroke-width="2" stroke-miterlimit="10" d="M1105.6,471c8.2-4.5,10.6-13,14.5-20.4
	c5.6-10.6,3.6-22,3.4-33.1c-0.2-6.4-0.8-12.9-1.1-19.3c-0.8-14.3-1.2-28.7-2.3-43c-1.6-20.1-2-40.4-6.3-60.1
	c-2.2-9.9-4.9-19.5-10-28.5c-4.1-7.1-6-14.9-4.4-23.4h20.1c0.1,1.4,0.1,2.7,0,4.1c-0.9,8.3,3,15.1,6.1,22.5
	c3.9,9.4,7.6,19.2,9.2,29.3c2.7,17.2,3.8,34.6,5.3,52c1,11.4,1.6,22.8,2.2,34.2c0.8,16.2,1.4,32.3,2.4,48.5
	c0.3,4.9-1.2,9.1-2.8,13.4c-2.8,7.4-6,14.6-11.2,20.6c-0.6,0.7-1.1,1.5-1.8,2.7c14.1,3,19.6,13.2,22.5,25.6c1,4.6,1.9,9.2,3,13.8
	c0.5,2.2,3.7,4.2,1.1,6.4c-1.7,1.5-4.4,1.9-7.2,3c-2.1-3.6-4.7-7.2-6.5-11c-6.8-14.9-18.4-27.1-32.9-34.6c-0.8-0.5-1.7-1-2.5-1.5
	C1105.8,471.8,1105.8,471.5,1105.6,471z"/>
<path fill="#871818" stroke="#871818" stroke-width="2" stroke-miterlimit="10" d="M1598.4,208.5c-16.8,15.2-30.6,31.4-39.9,51.1
	c-4.6,9.6-6.8,20.3-6.2,30.9c0.6,14,8.6,23.2,19.9,30.1c11.9,7.3,25.3,10.9,38.4,15.3c10.5,3.5,20.8,7.5,29.7,14.5
	c7.5,5.9,12.4,13,12.9,22.8c0.8,15.7-4.8,28.4-17.3,37.9c-4.5,3.4-12.9,4.2-20,2.3c0.5-0.9,1.2-1.7,1.9-2.5
	c7.8-7.2,11.8-16.6,13-26.7c1-8.6-3.4-15.8-10.4-21c-10.7-8-23.2-12.1-35.8-16.1c-12-3.8-24-7.5-34.3-14.8
	c-7.4-5.2-14.3-11.1-17.8-19.9c-1.1-2.7-1.8-5.5-2.2-8.4c-1.7-18.1,0.9-35.3,10.7-51.2c9-14.5,20-27.3,32.1-39.2
	c1.9-1.9,5-3,7.8-3.4C1586.5,209.3,1592.1,209.1,1598.4,208.5z"/>
<path fill="#871818" stroke="#871818" stroke-width="2" stroke-miterlimit="10" d="M808.7,443.2c1-0.8,1.8-2,3-2.3
	c9.5-2.7,13.7-9.9,15.7-18.7c4.8-20.9,4.9-42.2,4.8-63.5c-0.2-23.2-0.3-46.3-0.4-69.5c-0.1-8.9-0.1-17.8-0.4-26.7
	c-0.1-7.2-2.8-14.2-7.6-19.6c-1.3-1.5-3.9-2.3-6.1-2.6c-7.9-1.2-15.9-2.6-23.8-0.1c-0.6,0.1-1.2,0-1.7-0.1c-1-6,1.5-9.6,7.5-11.8
	c10.4-3.9,21-5.2,31.8-2.3c0.4,0.1,0.7,0.1,1.1,0.1c9-1.4,13.5,4.5,17.1,11.1c2.8,5,4.7,10.4,4.6,16.5c-0.3,15.1-0.2,30.2-0.1,45.3
	c0.2,24.8,0.5,49.7,0.7,74.5c0,8.4-0.1,16.8-0.8,25.1c-0.5,5.7-2,11.3-3.2,16.9c-0.7,3-1.5,6-2.5,8.9c-2.5,7.8-8.5,14-16.2,16.7
	c-4.8,1.8-9.7,3.2-14.8,4.2c-2.5,0.5-5.2-0.7-7.8-1.1L808.7,443.2z"/>
<path fill="#871818" stroke="#871818" stroke-width="2" stroke-miterlimit="10" d="M1025.4,207c3.1,6.1,6.2,11.1,8.2,16.5
	c1.9,5.1,3.7,10.6,3.9,16c0.7,19,0.6,37.9,0.9,56.9c0.1,6.8,0.6,13.6,0.7,20.4c0,6.1-0.7,12.1-0.6,18.2c0.1,14.9,0.8,29.8,0.6,44.6
	c-0.1,10.2-3.1,20.1-8.6,28.7c-4.7,7.1-16.3,10.8-23.7,4.6c4.9-6.3,8-13.9,8.7-21.9c0.9-10.4,1.1-20.9,1.2-31.3
	c0.2-13.6,0.1-27.2,0-40.9c0-5.1-0.5-10.2-0.5-15.3c-0.1-12.3,0.1-24.5-0.1-36.8c-0.1-11.2-0.1-22.4-4.8-33c-0.9-2-1-3.5,0.2-5.4
	c2.3-3.4,4.5-6.9,6.6-10.4c1.6-2.7,2.9-5.5,4.6-8.2C1023.5,208.6,1024.4,207.7,1025.4,207z"/>
<path fill="#871818" stroke="#871818" stroke-width="2" stroke-miterlimit="10" d="M1144.9,44c-21.9,10.1-37.7,26.2-45.8,49.3
	s-5.7,45.6,5.5,68.1c-5.4,1.9-10.5,3.8-15.7,5.6c-0.5,0.2-1.7-0.5-2-1.1c-17.7-30.2-17.8-65.5,4.2-95.3c5.5-7.5,13.5-12.1,21.4-16.6
	c7.5-4.3,15.2-8.2,24-9.1c1.1-0.2,2-0.7,2.8-1.4c7.4-6.4,14.7-12.9,22.1-19.4c2.5-2.3,5.4-4.2,8.5-5.8c-2.2,3.1-4.7,6.1-6.6,9.4
	c-6.6,11.2-7.3,23.3-5.9,35.9c1.1,9.8,5.6,18.5,8.9,27.5c3.8,10.5,1.8,20.4-2.8,30.2c-8.9-12.1-8.2-26-7.7-40
	c-6.9-0.8-17.1,9.8-25.3,26.2l-1,0.1c-0.3-5.5-1.2-11-0.9-16.4c0.3-5.5,1.2-11,2.8-16.4c1.7-5.4,4-10.7,6.6-15.7
	c2.4-4.9,5.5-9.5,8.2-14.3L1144.9,44z"/>
<path fill="#871818" stroke="#871818" stroke-width="2" stroke-miterlimit="10" d="M1573.5,380.2c-3.7,4-7.8,7.7-10.8,12.1
	c-6.2,8.9-12.1,18-17.6,27.4c-4.4,7.5-8.4,15.4-9.2,24.2c-0.6,6.6-0.7,13.2-0.3,19.8c0.3,4.8,3.7,7.4,9.2,8.2
	c0.8,0.1,1.7,0.2,3.8,0.3c-2.8,2.9-4.8,5.4-7.2,7.5c-4.9,4.3-10.5,7.1-17.3,5.4c-7.2-1.8-11.1-8.2-11.7-17.3
	c-1.2-17,2.9-32.7,11.5-47.2c5.2-8.8,11-17.3,16.7-25.8c1.5-2.1,3.5-3.7,5.9-4.8c6.9-3.4,14-6.6,21.2-9.7c1.7-0.7,3.8-0.7,5.6-1
	L1573.5,380.2z"/>
<path fill="#871818" stroke="#871818" stroke-width="2" stroke-miterlimit="10" d="M762.4,149.9c0.8-6.4,5.2-9.8,9.9-12
	c4.6-2.2,9.7-3.5,14.8-3.8c18.1-0.6,36.2-0.8,54.4-0.8c5.8-0.1,11.6,0.3,17.4,1.1c9.4,1.4,16.6,7.3,24,12.8c1.5,1.1,3.2,2.1,5.1,3.4
	c-1.1,0.8-2.3,1.5-3.6,2.1c-5.3,2.2-10.6,4.4-15.9,6.4c-2.7,1.1-5.9,0.8-8.3-0.9c-5.2-3.3-10.4-6.8-16-9.1
	c-4.1-1.5-8.5-2.3-12.8-2.3c-13-0.3-26.1-0.5-39.1,0c-8.3,0.3-16.6,1.8-24.9,2.7C765.8,149.7,764.2,149.8,762.4,149.9z"/>
<path fill="#871818" stroke="#871818" stroke-width="2" stroke-miterlimit="10" d="M791.3,274.6c-4.2,2.2-8,5.5-12,7.1
	c-5,1.9-9.6-1.5-11.1-7.8c-4.8-19.6-6.5-39.9-4.9-60.1c0.6-7.7,3.6-15.3,5.7-22.9c0.6-2.3,2.4-3.4,5-3.2c4.9,0.2,9.7,0.1,15.3,0.1
	c-8.5,6-9,14.7-9.9,23.3c-0.7,7.2-1.7,14.5-1.3,21.7c0.6,11.1,1.7,22.3,5.8,32.9C785.3,269.3,786.9,272.1,791.3,274.6z"/>
<path fill="#871818" stroke="#871818" stroke-width="2" stroke-miterlimit="10" d="M388.8,254.4c0.8-3.8,1.2-7.1,2.3-10.2
	c0.7-1.4,1.9-2.3,3.4-2.6c7.7-0.7,15.4-1.3,23.1-1.5c12.1-0.4,21.3,4.9,28,14.8c2.5,3.7,5.2,7.2,8.2,10.6c1.2,1.3,3.3,1.9,5.7,3.1
	c-1.2,1.1-2.5,2.1-3.9,2.9c-4.8,2.1-9.6,4-14.5,6c-4.4,1.8-7,1.3-10-2.2c-3.1-3.7-6-7.7-8.9-11.5c-5.8-7.6-13.9-10.1-23.1-10
	C396.1,253.9,393.1,254.2,388.8,254.4z"/>
<path fill="#871818" stroke="#871818" stroke-width="2" stroke-miterlimit="10" d="M1509.6,265c-0.6,0.5-1.2,1-1.9,1.3
	c-4.9,2.2-9.8,4.4-14.6,6.5c-4.6,2-6.8,1.6-9.8-2.2c-2.9-3.6-5.7-7.3-8.5-11c-4.8-6.4-11.5-9.2-19.1-9.9c-4.6-0.4-9.2-0.1-14-0.1
	c0.2-1.5,0.7-3.4,0.8-5.4c0.3-4.4,2.4-6.7,6.9-7.1c9.4-0.7,18.7-2.6,28.1-0.8c10,1.9,16.8,8.3,22.3,16.4
	C1502.7,257.1,1506.2,260.9,1509.6,265z"/>
<path fill="#871818" stroke="#871818" stroke-width="2" stroke-miterlimit="10" d="M1440.4,340.6c0-4.1,0-7.6,0-11.1
	c0-2.2,0.8-3.1,3-3.1c11.5,0,23-0.4,34.4,0.2c9.4,0.5,16.4,5.1,19.8,14.7c1.5,4.2,2.1,9.8,9.1,9.6l-0.3,0.9
	c-1.1,0.8-2.2,1.6-3.4,2.3c-4.3,2.3-8.7,4.4-13,6.7c-6.4,3.3-10.2,1.9-12.9-4.7c-0.6-1.5-1.4-2.9-1.8-4.4c-2.3-7.9-8-10.9-15.7-11
	C1453.5,340.5,1447.3,340.6,1440.4,340.6z"/>
<path fill="#871818" stroke="#871818" stroke-width="2" stroke-miterlimit="10" d="M1588.3,249.4c2.7-7.8,12.7-14.1,20.9-13.1
	c8.8,1.1,17.5,2.9,23.9,9.7c3.6,3.9,6.4,8.4,9.7,12.6c1,1.1,2.2,2,3.5,2.8c1.4,0.9,2.9,1.6,4.5,2.5c-2.2,2.8-4.2,5.2-6,7.7
	c-5.3,7.2-13.6,8-20,1.6c-3.7-3.6-7.4-7.6-10-12c-3.9-6.7-10.2-8.9-16.9-10.6C1594.8,250.1,1591.5,249.7,1588.3,249.4z"/>
<path fill="#871818" stroke="#871818" stroke-width="2" stroke-miterlimit="10" d="M1100.9,174c0.4,0.3,2.6,2.4,2.6,2.5
	c1.5,6.7,7.7,9.3,12,13.5c7.2,6.8,11.9,15.8,13.4,25.6c0.8,5.2,2.5,10.4,0.2,15.7h-19.7c1-18.6-4-34.3-19.3-45.9L1100.9,174z"/>
<path fill="#871818" stroke="#871818" stroke-width="2" stroke-miterlimit="10" d="M1667.9,178.8c-1.5,2.3-2.7,3.9-3.7,5.6
	c-2.9,4.9-2.4,8.3,0.7,12.9c2.1,3.2,3.9,6.5,5.6,10c0.4,0.8,0.2,1.9,0.4,3.3c-5.6-0.3-10.8-0.5-16.1-0.8c-2.6-0.2-5.3-0.9-7.9-0.8
	c-4.2,0.2-5.8-2.5-6.3-5.6c-0.6-3.8-0.8-7.7-0.4-11.6c0.4-2,1.7-3.6,3.4-4.6c6-2.9,12.2-5.4,18.4-7.8
	C1663.7,178.8,1665.7,179,1667.9,178.8z"/>
<path fill="#871818" stroke="#871818" stroke-width="2" stroke-miterlimit="10" d="M1510.4,384c-1.6,5.4-3.3,10.8-4.9,16.2
	c-3.5,11.9-10.9,15.5-20.6,16.8c-3.4,0.5-7,0.1-10.4,0.1l-0.3-1.1c0.8-0.6,1.6-1.2,2.4-1.7c6.4-3.7,9.3-9.3,9.5-16.6
	c0-1.7,0-3.4,0.2-5.1c0.2-2.5,2.1-4.6,4.6-4.9c5.5-1.1,10.9-2.5,16.3-3.7C1508.2,383.9,1509.3,383.8,1510.4,384z"/>
<path fill="#871818" stroke="#871818" stroke-width="2" stroke-miterlimit="10" d="M422.2,420.6c2.8-3.2,6.3-6,8.2-9.6
	s2.6-8.1,3-12.2c0.5-6,1.9-7.7,8-7.7c4.5,0,9,0,13.5,0c0.2,0,0.5,0.1,0.7,0.1C456.3,411,439.4,425.8,422.2,420.6z"/>
<path fill="#871818" stroke="#871818" stroke-width="2" stroke-miterlimit="10" d="M448.3,286.7c-6.2,15.8-15,21.4-30.6,18.5
	c2.5-4.4,4.7-9.2,7.7-13.5c1.5-2.1,4-4.5,6.3-4.8C437.1,286.2,442.7,286.7,448.3,286.7z"/>
<path fill="#871818" stroke="#871818" stroke-width="2" stroke-miterlimit="10" d="M1501.1,281.6c-5.8,16.9-15,22-31.7,19.8
	c1.9-2.3,4.1-4.2,5.2-6.5c2.1-4.9,5.8-7,10.7-8.2C1490.4,285.2,1495.4,283.4,1501.1,281.6z"/>
<path fill="#871818" d="M1209.7,219.8c2.6-0.5,4.7-1,6.7-1.3c7.3-1,14.5-0.8,20.5,4.4c3.3,3,5.4,7.2,5.7,11.6
	c0.6,4.5,0.9,9.1,1.5,13.6c0.1,0.9,0.8,2.5,1.3,2.5c1.1,0,2.2-0.5,2.9-1.3c6.2-9.7,15.9-11.6,26.4-12.4c7.5-0.5,14.9-2.1,22.3-2
	c11,0.2,21.7,2.3,29.9,10.6c5.1,5.1,8,12,8,19.2c0.3,12.2,1.2,24.5,1.3,36.7c0.1,11-0.4,22.1-0.7,33.2c-0.2,10.7,0,21.4-0.9,32.1
	c-0.9,10.9-2,21.9-4.4,32.5c-2.4,10.3-9.4,14.6-20.1,14.7c-3.8,0-7.5,0-12,0c0.9-1.4,1.1-2.3,1.7-2.7c7.7-4.2,9-11.9,9.8-19.3
	c1.3-12.3,1.9-24.7,2.3-37.1c0.5-12.8,0.6-25.6,0.6-38.3c0-14.3-0.2-28.7-0.8-43c-0.3-8.5-4.9-14.7-12-19.6c1.3,0.4,2.6,0.9,4,1.3
	s2.9,0.9,5.2,1.6c-0.7-1.3-0.8-2.4-1.5-3c-7.7-6.6-22-7.9-31.2-3.7c-6.1,2.8-11.9,5.9-16.7,10.5c-5.9,5.6-9.5,12.6-11.8,20.4
	c-2.9,9.8-3.8,19.8-3.7,30.1c0.2,27.6,0.2,55.1,0,82.7c-0.1,15.1-6.5,27.7-16.2,38.8c-3.4,4-10.7,3.5-15.9,2.7
	c0.2-1,1.4-0.8,1.6-1.5c1.3-4,5.5-7.9,5.8-12c0.9-13.8,1.4-27.7,1.6-41.6c0.2-19.1,0-38.3-0.1-57.4c-0.1-23.2-0.2-46.3-0.6-69.5
	c-0.2-4.8-1-9.6-2.4-14.2c-1.2-4.4-5-5.9-9.1-6.7c-5.1-1-6.1-2.3-5.2-7.4c0.7-3.8,1.4-7.6,2.4-11.4c0.3-1,1.4-1.8,2.2-2.7
	c0.7,0.9,1.2,2,1.5,3.1C1209.8,216,1209.8,217.9,1209.7,219.8z"/>
<path fill="#871818" d="M454.3,355c-2,1.4-3.2,2.3-4.5,3c-4.1,2.2-8.4,4-12.2,6.6c-5.2,3.4-11.1,1.8-13-4.4c-0.1-0.3-0.3-0.7-0.4-1
	c-5.2-14-7-13.6-21.2-14.8c-4.7-0.4-9.5-0.1-15-0.1c0-3.8-0.2-7.4,0.1-10.9c0.4-1.2,1.4-2.1,2.7-2.4c11.9-0.2,23.7-0.3,35.6,0
	c11.3,0.3,16.7,7.8,20,17.4C448.2,353.7,448.5,353.9,454.3,355z"/>
<path fill="#FF1744" stroke="#FF1744" stroke-width="3" stroke-miterlimit="10" d="M200.1,275l3,0.7c-0.4,0-0.8,0.1-1.2,0.2
	c-1.6,0.6-3.8,0.7-4.8,1.8c-6.1,7.2-11.9,14.7-17.8,22c-3,3.7-2,8.1-2.5,12.2c-0.2,2.6-0.2,5.1-0.1,7.7c-0.3,25.3-0.8,50.7-0.9,76
	c0,13.1,0.5,26.3,0.8,39.4c0.1,5.9,2.4,11.2,5.5,16c3.5,5.8,7.4,11.4,11.6,16.8c3,3.7,7,6.5,10.6,9.8c0.7,0.6,1.3,1.1,2.4,2.1
	c-6.6,0-12.5,0.1-18.4,0c-11.3-0.2-22.7-0.8-34-0.9c-21.9-0.1-43.9,0-65.9-0.1c-11.4,0-23,0.6-34.3-0.6c-7.5-0.8-15.5-2.2-21.1-8.5
	c-3.3-3.7-4-13.3-1-17.1c0.9-0.7,2.1-1,3.2-0.7c1.2,0.3,2.2,1.1,2.8,2.1c5,8.9,13.7,11.7,22.6,14c9.8,2.5,20.1,2.4,29.9-0.1
	c6-1.5,9.7-6.3,13.4-11c4.4-5.6,6.1-12.2,7.2-18.9c0.9-5.8,1.2-11.7,1.5-17.6c3.3-55,0.7-110.1,1.4-165.2
	c0.1-10.1-0.8-20.2-0.6-30.2c0.3-11.5,1.7-22.9,6.4-33.7c5.2-12.4,13.5-23.1,24.1-31.2c9.4-7,19.8-12.8,30.8-17.1
	c4-1.7,8.2-2.9,12.6-3.5c3-0.4,8.2,0.8,12.2,1.4c-1.1,1.9-3.5,3.1-4.3,3.8c-7.7,6.8-11.6,16-14.2,25.5s-3.6,19.5-4.5,29.4
	c-0.9,9.4-0.8,19-1,28.4c-0.1,3.9,0.7,7.9,0.4,11.8c-0.4,5.2-1.5,10.4-2.4,15.5l1.6,1c1.7-1.4,3.5-2.6,5.1-4.1
	c5-4.6,9.8-9.7,15.1-14c9.5-7.7,19.2-15.1,28.9-22.5c6.9-5.3,14-10.2,20.6-15.6c10.1-8.3,18.2-18.4,21.8-31.1
	c1.6-5.6,0.3-11.9,0.5-17.9c0.2-5.5-1.9-10.3-4.8-14.8c-3.7-5.6-8.9-9.5-15.3-10.6c-8.4-1.6-16.8-2.6-25.3-3
	c-14.4-0.5-28.8-0.4-43.2,0c-5.7,0.1-11.4,1.1-16.8,3c-5.1,2-9.8,4.9-13.9,8.6c-6.9,6.3-13.1,13.4-19.6,20.1
	c-3.6,3.7-8.3,3.6-12.8,3.1c-1.3-0.2-2.8-2.1-3.4-3.5c-2.8-7.6-4.7-15.6-8.1-22.8c-4.5-9.5-9.8-18.6-15.7-27.3
	c-9.7-14-22.8-24-39.4-28.5c-5.8-1.5-12-1.5-18.5-2.3v-6v-0.8c0.2-0.4,0.3-0.7,0.5-0.8c1.5-1,0.6-1.6,1.3-3c1.8-3.1,5.1-3.3,8.1-2.7
	c9.9,2,19,6.6,26.6,13.2c6.2,5.4,13,6.2,20.3,6.3c22.6,0.3,45.1,0.6,67.7,0.6c17.3,0,34.6-0.4,52-0.6c13.3-0.2,26.6-0.9,39.8-0.6
	c14.1,0.3,28.2,0.9,41.9,4.7c15.9,4.5,29.4,12.6,36.7,28c2.8,5.8,4,12.4,4.8,18.8c0.8,6.1,0.3,12.3,0.1,18.5
	c-0.5,20.4-10.5,35.8-25.7,48.2c-8.5,6.9-18,12.8-26.9,19.2c-0.8,0.5-1.5,2.5-1.1,3.1c2.9,4.5,6.6,8.6,8.9,13.4
	c6.2,12.6,12.5,25.2,17.4,38.4c3.7,10,5.5,20.8,7.5,31.4c1.5,8.3,2.5,16.7,3,25.1c0.7,10.6,0.7,21.3,1,32c0.2,6.8,0.6,13.6,0.6,20.4
	c-0.1,15.6-0.9,31.2-0.7,46.7c0.3,18.5,0.7,37,2.3,55.5c1.5,17.9,4.1,35.8,7.3,53.5c3.1,17.5,11.7,33.6,24.5,45.9
	c10.9,10.6,23.2,19.2,38.4,22.1c5.7,1.1,11.6,1,17.2-0.3c11.5-2.8,22.2-8.5,30.8-16.6c2.3-2.2,5-1.3,5.6,1.8c0.7,3.7,1,7.5,1.1,11.3
	c-0.1,1.4-0.8,2.6-2,3.3c-7.9,2.9-16,5.6-24,8.1c-2.8,0.8-5.6,1.2-8.5,1.2c-17.6,0.3-35.3,0.5-53,0.8c-3.6,0.1-7.2,0.8-10.8,0.7
	c-9.7-0.3-19.5-0.1-29-1.6c-12.6-1.9-25.7-3.6-36.1-11.7c-5.2-4-9.1-9.8-13-15.2c-7.2-10.1-10.7-21.8-12.3-34
	c-3-22.7-1.2-45.5-1.4-68.2c-0.2-26.1,0.5-52.1,0.5-78.2c0-10.9-0.9-21.8-1.4-32.7c-0.4-7.6-1-15.2-1.4-22.8
	c-0.5-10.2-0.6-20.4-1.6-30.5c-0.8-8.6-3.1-17-4-25.5c-1-10.2-5.7-19-9.5-28.1c-2.5-6-10.9-9.1-16.8-5.1c-4.4,3-8.9,6.2-13.1,9.5
	C202.5,271,201.5,273,200.1,275z"/>
<path fill="#FF1744" stroke="#FF1744" stroke-width="3" stroke-miterlimit="10" d="M808.4,263.4c-4.3,2.5-8.2,4.8-12.2,7.1
	c-0.7,0.4-1.5,0.9-2.2,1.4c-3,2.2-4.2,5.1-8.2-1.7c-3.5-6.3-5.6-13.3-6.1-20.5c-0.8-8.5-2.3-17.1-2-25.5c0.4-9,2.2-18.1,4.2-26.9
	c1.8-7.4,5.6-9.7,13.1-9.6s15.1,0.5,22.7,0.4c24-0.1,48-0.6,72-0.4c10.2,0.1,19.3,4,24,13.8c2.3,4.7,3.5,9.8,3.6,15
	c-0.4,13.8-1.8,27.6-2.7,41.4c-0.2,3.8-0.3,7.5-0.2,11.3c0.3,26.2,0.7,52.4,0.8,78.6c0.1,12.1-0.7,24.1-0.7,36.2
	c0,8.3-2.1,16.2-6.8,22.6c-10,13.5-20.4,26.6-31.4,39.3c-6.7,7.7-14.8,14.3-22.4,21.3c-2.6,2.5-5.5,4.7-8.6,6.5
	c-3.3,1.7-6.8,3-10.4,3.9c-4.2,1.2-8.5,2.2-12.7,3c-3.3,0.8-6.6,1.2-9.9,1.4c-15,0.2-30,0.5-45-0.1c-6.8-0.3-13.7-1.9-20.3-3.9
	c-6-1.8-11.7-4.3-17.2-7.5c-9.2-5.4-15.1-13.9-19.5-23.3c-2.2-4.7-4.1-9.5-5.7-14.4c-1.2-3.7-1.5-7.7-2.5-11.4
	c-3.4-12.7-3.9-25.7-5.1-38.7c-0.4-4.6-0.7-9.2-0.7-13.8c0-52.1-0.3-104.2,0.2-156.3c0.2-10.5,1.7-20.9,4.5-30.9
	c3.1-11.6,10-21.5,17.7-30.7c6.8-8.1,13.5-16.5,20.9-24c8.2-8.3,17-16.1,26-23.6c4.8-4,11-6.4,15.8-10.5c7.4-6.4,16.1-4.3,24.3-4.6
	c15.4-0.7,31,0.2,46.3-1.2c11.8-1.1,23.9-3.2,34.6-9.2c2.7-1.4,5.3-2.9,7.8-4.6c1.6-1.3,2.9-2.8,3.9-4.6c6-10.2,11.8-20.6,21.9-27.4
	c3.2-2.2,7.2-3.4,10.7-5.2c2.5-1.3,3.3,0.1,4.1,1.9c1.2,3.1,2.4,6.3,3.4,9.1c-5.6,3-11.2,6-16.8,9.1c-8,4.3-14.5,11-18.7,19
	c-2,3.8-2.7,8.5-3,12.9c-1,12.3-1.7,24.7-2,37c-0.1,5.4,1,10.8,1.9,16.1c0.4,2.6,0,4.1-2.7,4.8c-3,0.8-5.9,2.3-9,2.9
	c-1.6,0.2-3.2-0.3-4.4-1.3c-7.5-6.1-15.1-11.8-24.8-13.8c-0.6-0.2-1.2-0.3-1.8-0.3c-20.6-0.3-41.2-0.7-61.7-0.6
	c-6.4,0.2-12.7,0.9-19,2.2c-5.2,0.9-13.5,7.9-15,13.4c-4.8,17.8-3.3,35.9-3.4,53.9c-0.3,46.1-0.2,92.2-0.1,138.3
	c0,14.5-1,29.3,1.1,43.5c2.5,16.9,6.3,34,19.6,46.7c7.5,7.1,16.2,12.3,27,12.9c1.8,0,3.6,0.3,5.2,1c4.4,2.4,8.4,0.4,12.6-0.3
	c7.2-1,13.8-4.5,18.6-9.8c4.5-4.7,7.3-10.7,8.1-17.1c0.7-5.5,2.2-11,3.3-16.4c0.1-0.7,0.2-1.4,0.2-2.2c0.3-30,0.7-59.9,0.7-89.9
	c0-20,0.2-40-0.9-59.9c-0.5-9.4-5.6-17.6-13.8-23.2c-0.3-0.2-0.6-0.3-1-0.3c-11.8-0.8-23.6-3.2-35.2,0.1c-3.8,1.1-7.3,3.5-10.6,5.7
	c-1.2,1.1-1.9,2.6-1.9,4.3c0.2,4.4,0.6,8.8,1.3,13.1c0.6,3.6,3.2,5.8,6.3,7.4C802.1,258.3,806.2,259.2,808.4,263.4z"/>
<path fill="#FF1744" stroke="#FF1744" stroke-width="3" stroke-miterlimit="10" d="M1026,207.4h11.4c13.4,0,26.8,0.1,40.3-0.1
	c3.8-0.1,6.6,0.9,8.8,4.4c-1.5,1.8-3,3.9-4.7,5.6c-3.9,3.8-5.1,8.8-5.8,13.8c-0.6,4.8-1,9.7-1,14.6c-0.1,14.7-0.1,29.3,0.1,43.9
	c0.1,14.5,0.5,29,0.6,43.5c0,13.1-0.7,26.3-0.5,39.4c0.2,12.4,1,24.8,2.2,37.1c0.7,7.4,4.6,13.7,8.9,19.7c1.2,1.7,2.3,3.4,3.3,5.3
	c1.5,2.7,0.6,4.6-2.3,4.9c-5,0.4-9.9,0.7-14.9,0.7c-6.5,0.1-13-0.3-19.5,0.1c-4,0.2-5.8-1.6-7.1-4.8c-2.3-5.7-4.5-11.4-6.9-17.7
	c-0.9,1.2-1.7,2.4-2.4,3.7c-3,6-6.9,11.5-12.8,14.6c-4.6,2.4-10,3.7-15.2,4.7c-4.8,0.9-9.9,0.7-14.8,0.9c-13,0.4-23-5.2-29.3-16.2
	c-2.8-4.9-3.9-11-4.9-16.7c-1.1-6.8-1.2-13.7-1.5-20.5c-0.1-2,0.6-4,0.6-6.1c-0.2-27.2-0.7-54.3-0.6-81.5c0-13.6,1.3-27.1,7.8-39.6
	c5.5-10.5,13.7-18.6,22.7-26c0.7-0.6,1.3-1.3,1.8-2.1l-0.5-1c-7.1,0.4-14.2,0.8-21.2,1.2c-1.3,0.1-2.6,0.5-3.9,0.5
	c-6.9,0.1-11,4.3-11.1,11.2c0,2.7,0.5,5.5-2.2,7.6c-2.1,1.7-6.8,3.6-7.5,2.1c-1-2-1.6-5.1-0.8-7.1c4.9-12.8,10.3-25.4,15.6-38.1
	c0.4-0.9,1.5-2.1,2.3-2.1c20.5-0.1,41-0.1,62.6-0.1c-3,4.9-5.5,9.2-8.2,13.3c-8.7,13.2-13.6,27.8-16.4,43.2
	c-5.9,32.1-4.4,64.6-4.2,96.9c0.1,12,0.8,24.1,2.2,36c0.8,7,3.9,13.5,10.6,17.5c8.9,5.2,20,0.5,24.5-8c4.6-8.6,7-18.2,7.2-27.9
	c0.2-10.1,0.1-20.2,0-30.4c-0.1-7.3-0.6-14.6-0.7-21.9c0-5.6,0.7-11.1,0.6-16.7c-0.1-21.7-0.2-43.3-0.8-65c-0.3-9.6-2-19-7.7-27.3
	C1028.4,214.5,1027.5,211,1026,207.4z"/>
<path fill="#FF1744" stroke="#FF1744" stroke-width="3" stroke-miterlimit="10" d="M1259.8,414.6h38c4.2,0,8.3,0,12.5,0
	c13.5,0.1,19.3-8.3,21.5-19.8c3.5-18,2.9-36.2,3-54.3c0-10.1,0.4-20.2,0.7-30.2c0.2-5.8,0.9-11.6,0.6-17.4
	c-0.4-11.3-0.9-22.7-2.2-34c-1.1-9.6-7.7-15.8-16.1-19.7c-8.2-3.7-17.1-5.2-26.1-4.3c-10.8,0.8-21.4,2.4-32,4.6
	c-3.8,0.8-7,4.8-10.3,7.5c-0.8,0.6-1.3,1.8-2,2.5c-0.7,0.5-1.4,1-2.1,1.4c-0.5-0.8-0.9-1.6-1.2-2.5c-0.8-5.5-1.1-11-2.2-16.4
	c-2.3-10.8-8.9-13.2-17.7-13.9c-4-0.3-8.1,0.8-12.1,1.2c-0.7,0.1-1.4,0-2.3,0v-8c2.7-0.2,5.6-0.7,8.4-0.7c36.5,0,73-0.6,109.4,0.2
	c23.8,0.5,41.6,17.6,41.7,41.8c0.1,38.8-0.1,77.6,0.1,116.4c0.1,10-3.1,19.8-8.9,27.9c-10.9,15.8-24.6,28.9-39.5,40.8
	c-4.7,3.8-10.8,4.2-16.6,4.3c-21.5,0.2-43,0.4-64.4-0.1c-6.7-0.1-13,0.3-19.3,2.5c-2.8,1-5.9,0.8-9.8,1.3c1.1-3.7,1.9-6.7,2.8-9.7
	c3.5,2.4,9.7,1.7,13.1-1.5c6.2-5.9,10.2-13.3,13.5-21.1c2.6-6.3,3.9-13.1,3.8-19.9c0-30.5-0.4-61,0.2-91.5
	c0.2-12.1,2.9-23.9,10-34.3c5.3-7.6,12.4-12.7,20.8-16.5c7.3-3.5,15.7-4,23.4-1.3c3.4,1.2,7.5,3.5,10.5,5.7
	c-5.7-1.2-12-3.1-17.9-0.9c-4.2,1.6-7.1,4.2-8,8.5c-1.3,5.9-2.9,11.9-2.9,17.9c-0.3,32.1-0.4,64.2,0,96.3c0.2,14-6.5,24-15.8,33.2
	C1262.6,412.1,1261,413.5,1259.8,414.6z"/>
<path fill="#FF1744" stroke="#FF1744" stroke-width="3" stroke-miterlimit="10" d="M1651.7,263.2c-9.6-2.1-12.5-9.9-17.2-15.7
	c-2.5-3.2-5.2-6-9.2-7.1c-6.2-1.7-12.3-3.8-18.6-4.9c-4.3-0.8-8.3,1.4-11.5,4.2c-10.1,8.9-14.6,19.9-12.3,33.4
	c1.2,7,6.4,10.8,11.9,13.9c13.4,7.6,28.3,11,42.8,15.9c17.1,5.7,33.1,14.1,41.8,31.1c2.3,4.6,3.3,10.2,3.7,15.4
	c1.8,19.8-5.2,37.3-15,53.8c-6.6,11.1-14.2,21.5-21.2,32.3c-2.9,4.5-7.3,5.9-12.2,5.9c-26.1,0.1-52.2-0.1-78.3,0.1
	c-4.2,0-8.4,0.9-12.6,1.5c-2.4,0.3-3.2,2-3,4.2c0.2,1.8,0.2,3.7,0.5,5.5c0.2,2.9,2.3,5.3,5.1,6c2.7,0.8,5.3,2,8.5,3.3
	c-1.9,3.2-3.6,6.2-5.6,9c-0.4,0.6-1.7,0.8-2.6,0.9c-7.4,0.3-12-4.4-12.2-13.1c-0.4-10.6,1.8-21.1,6.4-30.7
	c5.5-11.4,11.4-22.5,19.2-32.4c4.2-5.3,8.8-10.2,13.4-15.2c1.9-2,3.4-1.3,4.9,1.5c3.3,6.1,6.3,12.5,10.4,18.1
	c3.4,4.6,7.6,8.5,12.4,11.6c3.2,2,7.8,2.2,11.8,2.7s8,0,12,0.4c7,0.7,12.1-2.9,16.3-7.6c6.7-7.4,10.8-16.8,11.8-26.8
	c1.7-15.3-5.2-25.8-17.5-33.5c-9.9-6.2-20.8-9.9-31.9-13.3c-11.9-3.6-23.7-7.6-34-14.7c-8.1-5.5-15-12.3-16.8-22.5
	c-1.8-10.6-0.6-21.5,3.5-31.5c5.1-12.9,12.5-24.7,21.9-34.8c6.3-6.8,13-13.2,19.6-19.8c0.8-0.8,1.9-1.2,3-1.2
	c14.6,0,29.3-0.2,43.9,0.2c6.9,0.1,13.7,1.2,20.5,1.9c1.7,0.1,3.4,0,5.1,0c1.1-5.7-2-9.8-4.9-13.2c-5.8-6.7-3-13.4,3-18.3
	c6.3,6,12.4,12,10.4,22c-0.4,2,0.1,4.1,0,6.1c-0.4,13.1-6.6,24.2-13.1,35C1661.5,249.8,1656.2,256.6,1651.7,263.2z"/>
<path fill="#FF1744" stroke="#FF1744" stroke-width="3" stroke-miterlimit="10" d="M1510.2,384.2c2.9,0.3,5.8,0.7,8.6,1.3
	c1,0.3,2.5,1.6,2.5,2.5c0.3,16-2.8,31-14.3,43.1c-3,3.1-6.3,6.3-10.1,8.1c-4,1.7-8.3,2.5-12.6,2.5c-14,0.3-28.1,0.4-42.1,0
	c-6.1-0.2-11.7-2.9-16.9-6.2c-10.5-6.7-16.6-16.3-19.7-28.2c-2-8.3-3-16.8-2.8-25.4c0-8.8-0.1-17.6,0-26.3
	c0.1-6.2,0.7-12.3,0.7-18.5c-0.1-16.3-0.8-32.6-0.5-48.9c0.1-8.1,0.6-16.2,3.3-24.2c2.8-8.4,7.3-16.2,13.1-22.8
	c7.5-8.3,15.5-16.2,23.4-24.1c3.2-3.5,7.8-5.4,12.6-5.2c19,0.4,38.1,0.2,57.1,0.2h4.8c0,3.1,0,6,0,9c0.1,12.5,0.2,25.1,0.2,37.7
	c-0.1,1-0.6,2-1.5,2.6c-1.7,1.1-3.7,1.9-5.7,2.3c-1,0.2-2.6-0.8-3.4-1.8c-5.3-6.2-10.1-12.8-15.7-18.7c-4.4-4.6-10.5-6.2-16.9-7
	c-9.2-1.1-18.2,0.4-27.2,1.6c-3.9,0.5-5.7,2.6-5.9,8.3c-0.7,18-1.1,36-1.7,54c0.1,0.7,0.2,1.4,0.4,2.1h28.5c3.9,0,7.9-0.1,11.8,0
	c6.7,0.1,11.5-3.4,15.3-8.3c2.3-3,4-6.3,5.2-9.8c0.9-2.7,2.1-3.1,4.5-2.4c1.4,0.4,2.8,0.7,4.5,1.1c0,2,0,4.1,0,6.1
	c-0.1,17.8,0,35.6-0.3,53.4c0,3.2,0.8,7-2.8,9.2c-6.5-0.2-7.4-5.8-9.2-10.2c-5.2-12.5-10.5-13.8-21.3-14.6s-21.9-0.1-32.9-0.2
	c-2.7,0-3.7,0.7-3.6,3.5c0.1,12.9-0.3,25.8,0.1,38.7c0.2,8.3,0.9,16.5,2.2,24.6c2,11.3,10.3,17.6,20.3,21.6
	c4.1,1.6,8.8,1.7,13.1,2.7c6,1.3,11.7,0.1,17.4-1.8c6.9-2.3,10.6-7.6,12.7-14.1C1507.1,395.6,1508.6,389.9,1510.2,384.2z"/>
<path fill="#FF1744" stroke="#FF1744" stroke-width="4" stroke-miterlimit="10" d="M456.9,286.8c0,7,0,13.8,0,20.7
	c0,11.5,0,22.9-0.2,34.3c0,2.7-0.6,5.3-0.6,8c0,2.4-0.3,4.8-3,5c-2.4,0.2-4.9-0.6-6-3.5c-1.2-3-2.5-5.9-3.8-8.9
	c-3.2-8-9.6-11.3-17.7-11.9c-5.8-0.4-11.6-0.7-17.4-0.7c-6.3,0-12.6,0.5-18.9,0.6c-2.8,0-2.8,1.7-2.7,3.6
	c0.2,14.7,0.3,29.4,0.6,44.1c0,6.3,0.5,12.6,1.6,18.9c1.7,9.3,8,15.4,16.1,19.5c11.5,5.7,23.4,7,35.6,2.4c7.3-2.7,10.2-9,12.5-15.7
	c1.1-3.2,1.4-6.5,2.4-9.7c0.3-0.9,1.4-2.2,2.2-2.2c3.5-0.2,7-0.1,10.9-0.1c-0.2,8.1-0.1,16-2.9,23.3c-2.7,6.8-6.4,14.6-9.1,20.5
	c-1.8,0.7-0.4,1.8-1.3,2.7c-6.6,6.6-17.7,8.2-27.1,7.8c-10.4-0.2-20.8-0.6-31.2,0.1c-9.4,0.8-18.8-1.9-26.5-7.6
	c-9.7-7-15.5-16.9-18.4-28.5c-2.4-9.3-2.2-18.7-2.2-28.1c0-30.6-0.2-61.3,0.1-91.9c0.1-13.6,3.3-26.6,11.5-37.9
	c8.2-11.4,18.5-21.1,28.5-30.9c4.4-4.3,8.8-4.6,14.1-4.5c18.5,0.1,37.1,0,55.6,0h4.3c0.1,1.4,0.2,2.5,0.2,3.7
	c0,13.8-0.2,27.6,0.1,41.4c0.1,3.6-2.3,5.4-3.8,7.9c-0.5,0.3-1,0.4-1.6,0.2c-4-2.9-7.6-6.4-10.6-10.4c-4-5.3-7.3-11.3-13.6-14.7
	c-4.8-2.7-9.8-4.6-15.2-4.5c-8.8,0.2-17.6,0.9-26.4,1.4c-3.2,0.2-4.7,2.9-4.9,8.1c-0.9,17.8-1.2,35.6-1.9,53.4
	c-0.1,2.3,0.7,2.9,2.9,2.9c8.8-0.1,17.5-0.1,26.2,0c2.9,0,5.8,0.5,8.7,0.6c9.2,0.3,15.8-3.9,20.1-11.9c0.3-0.5,0.5-1.1,0.8-1.6
	C448.6,286,448.7,285.9,456.9,286.8z"/>
<path fill="#FF1744" stroke="#FF1744" stroke-width="3" stroke-miterlimit="10" d="M1145.8,44.3c-14.2,19.6-21.9,40.1-16.4,64.1
	c4.7-12.7,12.5-22.3,25.3-27.7c-0.2,14.5-1.7,28.8,7.7,41.9c3.5-4.6,3.6-9.4,4.7-13.9c2-8.2-0.4-15.7-3.4-23
	c-3.9-9.4-7.1-18.9-7.5-29.1c-0.5-12.8,2.3-24.7,10.7-34.7c1.8-2.3,3.9-4.3,6.2-6c-0.7,4-1,8-2.1,11.9c-2.3,8.4-1.2,16.5,3.6,23.4
	c5.6,8.1,11.9,15.7,18.8,22.7c10.1,10.2,18.9,21,23.3,34.9c5.6,17.9,3.2,34.8-6.8,50.7c-1,1.3-2.5,2.1-4.1,2.2
	c-33.1,0.1-66.1,0.1-99.1,0c-1.5-0.2-2.9-1.2-3.7-2.5c-5.7-11.5-9.2-23.7-9.2-36.5c0-33.4,17.1-62.4,49.7-78
	C1144.4,44.3,1145.1,44.2,1145.8,44.3z"/>
<path fill="#FF1744" stroke="#FF1744" stroke-width="3" stroke-miterlimit="10" d="M1193.1,242.7c1.8,9.3-0.6,17.2-4.7,24.8
	c-5.9,11.2-9.6,23.4-11,36c-2.1,16.8-3.6,33.8-5,50.7c-0.8,9.4-1.1,18.9-1.6,28.4c-0.9,17.8-1.9,35.5-2.4,53.3
	c-0.1,3.8,1.5,7.8,2.8,11.5c3,8.2,6.5,16.2,13.2,22.9c-9.1,1.9-15.7,6.7-18.7,14.6c-3.5,9.4-6.6,19.3-9.2,28.9
	c-0.2,1.1,0.4,0-0.3,0.9c-0.8-2.8-1.6-3.7-2.3-6.5c-2.6-10.8-4-22.3-12.3-30.7c-3.4-3.4-8.2-5.3-12-7.7c2.7-4.8,6.1-10,8.9-15.6
	c2.3-4.7,3.8-9.7,5.6-14.6c0.2-0.8,0.3-1.7,0.3-2.5c-0.8-17.3-1.7-34.6-2.6-51.8c-0.9-16.2-1.8-32.4-2.9-48.5
	c-1.4-20.3-2.9-40.6-10.4-59.8c-2.3-5.9-5.7-11.3-7.6-17.3c-1.5-4.8-1.4-10-1.9-15c0-0.5,1.3-1.6,2-1.7c1.9-0.2,3.9-0.2,5.8-0.1
	l62.2,0.1L1193.1,242.7z"/>
<path fill="#FF1744" stroke="#FF1744" stroke-width="3" stroke-miterlimit="10" d="M1102.6,174.5h107.3c-2.1,4.2-2.8,8.1-7,10.8
	c-12.2,8-18.2,19.9-19.6,34.2c-0.4,3.8,0,7.7,0,11.8h-54.1c1.7-8.1-0.3-15.7-2.4-23.1c-2.5-8.8-7.9-15.8-15-21.5
	C1106.1,182.3,1106.1,182.3,1102.6,174.5z"/>
<path fill="#FF1744" stroke="#FF1744" stroke-width="3" stroke-miterlimit="10" d="M530.8,417.6h38c4.2,0,8.3,0,12.5,0
	c13.5,0.1,19.3-8.3,21.5-19.8c3.5-18,2.9-36.2,3-54.3c0-10.1,0.4-20.2,0.7-30.2c0.2-5.8,0.9-11.6,0.6-17.4
	c-0.4-11.3-0.9-22.7-2.2-34c-1.1-9.6-7.7-15.8-16.1-19.7c-8.2-3.7-17.1-5.2-26.1-4.3c-10.8,0.8-21.4,2.4-32,4.6
	c-3.8,0.8-7,4.8-10.3,7.5c-0.8,0.6-1.3,1.8-2,2.5c-0.7,0.5-1.4,1-2.1,1.4c-0.5-0.8-0.9-1.6-1.2-2.5c-0.8-5.5-1.1-11-2.2-16.4
	c-2.3-10.8-8.9-13.2-17.7-13.9c-4-0.3-8.1,0.8-12.1,1.2c-0.7,0.1-1.4,0-2.3,0v-8c2.7-0.2,5.6-0.7,8.4-0.7c36.5,0,73-0.6,109.4,0.2
	c23.8,0.5,41.6,17.6,41.7,41.8c0.1,38.8-0.1,77.6,0.1,116.4c0.1,10-3.1,19.8-8.9,27.9c-10.9,15.8-24.6,28.9-39.5,40.8
	c-4.7,3.8-10.8,4.2-16.6,4.3c-21.5,0.2-43,0.4-64.4-0.1c-6.7-0.1-13,0.3-19.3,2.5c-2.8,1-5.9,0.8-9.8,1.3c1.1-3.7,1.9-6.7,2.8-9.7
	c3.5,2.4,9.7,1.7,13.1-1.5c6.2-5.9,10.2-13.3,13.5-21.1c2.6-6.3,3.9-13.1,3.8-19.9c0-30.5-0.4-61,0.2-91.5
	c0.2-12.1,2.9-23.9,10-34.3c5.3-7.6,12.4-12.7,20.8-16.5c7.3-3.5,15.7-4,23.4-1.3c3.4,1.2,7.5,3.5,10.5,5.7
	c-5.7-1.2-12-3.1-17.9-0.9c-4.2,1.6-7.1,4.2-8,8.5c-1.3,5.9-2.9,11.9-2.9,17.9c-0.3,32.1-0.4,64.2,0,96.3c0.2,14-6.5,24-15.8,33.2
	C533.7,415.1,532,416.5,530.8,417.6z"/>
</svg>
